<mxfile host="app.diagrams.net" modified="2023-04-07T15:24:34.134Z" agent="Mozilla/5.0 (Windows NT 10.0; Win64; x64) AppleWebKit/537.36 (KHTML, like Gecko) Chrome/103.0.0.0 Safari/537.36" version="21.1.5" etag="gR6Ytn0mp-C5kxv5u_X_" type="github">
  <diagram name="第 1 页" id="uSv645tymoBII56ZWZOP">
    <mxGraphModel>
      <root>
        <mxCell id="0" />
        <mxCell id="1" parent="0" />
      </root>
    </mxGraphModel>
  </diagram>
</mxfile>
